<?xml version="1.0" encoding="iso-8859-1"?>
<!-- Generator: Adobe Illustrator 19.0.0, SVG Export Plug-In . SVG Version: 6.00 Build 0)  -->
<svg version="1.1" id="Layer_1" xmlns="http://www.w3.org/2000/svg" xmlns:xlink="http://www.w3.org/1999/xlink" x="0px" y="0px"
	 viewBox="0 0 512 512" style="enable-background:new 0 0 512 512;" xml:space="preserve">
<g>
	<g>
		<g>
			<path d="M442.998,285.662H318.815v-18.724c0-4.359-3.533-7.892-7.892-7.892s-7.893,3.534-7.893,7.892v18.724h-45.345v-18.724
				c0-4.359-3.534-7.892-7.894-7.892c-4.359,0-7.892,3.534-7.892,7.892v18.724h-37.128c-4.359,0-7.892,3.534-7.892,7.893
				s3.534,7.892,7.892,7.892h37.128v39.117h-76.792c-4.359,0-7.892,3.534-7.892,7.892c0,4.359,3.534,7.893,7.892,7.893h76.792
				v15.416c0,4.359,3.534,7.892,7.892,7.892c4.359,0,7.894-3.534,7.894-7.892V356.35h105.326v15.416
				c0,4.359,3.533,7.892,7.892,7.892c4.36,0,7.893-3.534,7.893-7.892V356.35h19.882c4.36,0,7.893-3.534,7.893-7.893
				c0-4.359-3.533-7.892-7.893-7.892h-19.882v-18.056c0-4.359-3.533-7.892-7.893-7.892c-4.36,0-7.892,3.534-7.892,7.892v18.057
				H257.685v-39.117h45.345v15.921c0,4.359,3.533,7.893,7.893,7.893s7.892-3.534,7.892-7.893v-15.921h124.182
				c4.36,0,7.893-3.534,7.893-7.892S447.356,285.662,442.998,285.662z"/>
			<path d="M512,190.774c0-2.093-0.831-4.101-2.312-5.582l-31.075-31.073c-1.754-1.755-4.13-2.507-6.42-2.263
				c0.229-2.735-0.971-5.513-3.397-7.176l-36.243-24.851c-1.727-1.184-3.85-1.633-5.91-1.25c-2.057,0.384-3.879,1.569-5.063,3.296
				l-19.394,28.286c-0.897-1.421-2.246-2.572-3.945-3.196l-41.253-15.143c-1.963-0.722-4.136-0.632-6.035,0.246
				c-1.899,0.88-3.372,2.477-4.094,4.443l-0.618,1.684l-34.285-6.845c-1.349-0.269-2.686-0.176-3.911,0.211
				c-0.655-0.753-1.451-1.386-2.357-1.85l-39.114-20.034c-3.878-1.985-8.635-0.455-10.622,3.426l-12.823,25.034l-17.362,4.476
				c-4.221,1.088-6.76,5.392-5.673,9.613l5.295,20.544l-3.995,7.798l-15.417-51.123c-1.259-4.172-5.66-6.536-9.835-5.277
				l-42.074,12.688c-2.005,0.604-3.686,1.98-4.675,3.824c-0.99,1.845-1.206,4.007-0.602,6.011l0.23,0.765
				c-1.063,0.078-2.128,0.369-3.13,0.903l-8.189,4.364l-8.65-28.686c-0.604-2.004-1.981-3.686-3.824-4.675
				c-1.845-0.99-4.007-1.207-6.011-0.602l-42.074,12.69c-4.174,1.259-6.536,5.662-5.277,9.835l13.364,44.314l-40.679-40.679
				c-3.082-3.082-8.08-3.082-11.162,0L2.312,175.991C0.831,177.47,0,179.478,0,181.571c0,2.093,0.831,4.101,2.312,5.581
				l39.314,39.313h-0.534c-10.806,0-20.092,4.376-25.478,12.006c-5.386,7.63-6.4,17.846-2.781,28.03l36.238,101.945
				c6.925,19.485,28.55,34.748,49.229,34.748h322.814c20.679,0,42.304-15.263,49.228-34.748l36.24-101.948
				c3.618-10.182,2.604-20.398-2.781-28.028c-5.181-7.339-13.974-11.655-24.254-11.974l30.143-30.143
				C511.169,194.875,512,192.867,512,190.774z M430.134,137.31l23.225,15.925l-32.663,47.639l-25.593,25.593h-26.1L430.134,137.31z
				 M361.065,150.134l24.327,8.93l-12.31,33.541l-23.217,33.861h-4.041L361.065,150.134z M316.603,148.375l27.615,5.513
				l-14.491,72.577h-28.716L316.603,148.375z M266.401,127.323l25.064,12.838l-8.516,16.625l-5.019-19.471
				c-0.522-2.027-1.829-3.763-3.632-4.827c-1.803-1.065-3.958-1.367-5.981-0.846l-4.759,1.227L266.401,127.323z M297.64,162.732
				l-5.744,28.765l-3.01-11.677L297.64,162.732z M264.616,148.898l19.993,77.567h-29.081l-18.181-70.538L264.616,148.898z
				 M231.326,195.804l7.903,30.662h-23.609L231.326,195.804z M193.143,141.558l17.873,59.269l-13.132,25.638h-1.422l-16.417-30.803
				l-13.864-45.974L193.143,141.558z M185.865,242.251l-38.979,38.979l-38.978-38.979H185.865z M146.349,166l32.227,60.466h-31.909
				l-25.168-47.222L146.349,166z M116.216,136.15l7.28,24.141l-16.386,8.732c-1.847,0.985-3.227,2.662-3.838,4.665
				c-0.61,2.003-0.4,4.165,0.585,6.012l24.923,46.763h-2.683l-17.263-17.263l-19.578-64.92L116.216,136.15z M19.055,181.571
				l19.912-19.912l64.806,64.806H63.949L19.055,181.571z M490.903,247.574c2.425,3.433,2.709,8.277,0.805,13.638l-36.239,101.947
				c0,0.001,0,0.001-0.001,0.001c-4.67,13.145-20.405,24.249-34.355,24.249H98.299c-13.951,0-29.683-11.105-34.355-24.25
				L27.706,261.216c-1.906-5.363-1.621-10.208,0.803-13.64c2.423-3.433,6.892-5.324,12.583-5.324h44.493l55.72,55.722
				c1.48,1.481,3.487,2.312,5.581,2.312s4.101-0.831,5.581-2.312l55.722-55.722H478.32
				C484.011,242.251,488.479,244.142,490.903,247.574z M457.253,226.466h-39.825l55.604-55.604l19.914,19.912L457.253,226.466z"/>
		</g>
	</g>
</g>
<g>
</g>
<g>
</g>
<g>
</g>
<g>
</g>
<g>
</g>
<g>
</g>
<g>
</g>
<g>
</g>
<g>
</g>
<g>
</g>
<g>
</g>
<g>
</g>
<g>
</g>
<g>
</g>
<g>
</g>
</svg>
